<?xml version="1.0" standalone="no"?>
<!DOCTYPE svg PUBLIC "-//W3C//DTD SVG 20010904//EN"
 "http://www.w3.org/TR/2001/REC-SVG-20010904/DTD/svg10.dtd">
<svg version="1.0" xmlns="http://www.w3.org/2000/svg"
 width="512.000000pt" height="512.000000pt" viewBox="0 0 512.000000 512.000000"
 preserveAspectRatio="xMidYMid meet">
<metadata>
Created by potrace 1.14, written by Peter Selinger 2001-2017
</metadata>
<g transform="translate(0.000000,512.000000) scale(0.100000,-0.100000)"
fill="#000000" stroke="none">
<path d="M2375 5114 c-16 -2 -73 -9 -125 -15 -536 -61 -1064 -315 -1470 -706
-131 -126 -150 -159 -126 -217 26 -62 708 -1242 732 -1266 29 -29 87 -33 125
-9 15 10 252 409 622 1047 629 1085 619 1066 581 1121 -28 40 -73 51 -196 50
-62 -1 -126 -4 -143 -5z"/>
<path d="M3021 5033 c-24 -22 -663 -1110 -736 -1252 -23 -45 -13 -92 26 -125
l31 -26 1206 0 c1129 0 1208 2 1228 18 63 50 58 95 -21 228 -140 234 -369 498
-580 669 -269 218 -601 390 -931 480 -156 43 -184 44 -223 8z"/>
<path d="M420 3935 c-54 -29 -211 -341 -289 -574 -90 -270 -124 -487 -125
-796 0 -292 26 -484 105 -747 35 -119 -46 -108 821 -108 l750 0 29 30 c61 60
84 12 -566 1145 -457 797 -597 1032 -620 1046 -35 22 -70 24 -105 4z"/>
<path d="M3417 3386 c-29 -26 -42 -64 -35 -99 7 -36 1177 -2040 1209 -2069 34
-32 91 -38 126 -13 52 36 189 316 268 545 94 274 128 490 129 805 0 292 -26
484 -105 747 -35 119 46 108 -819 108 l-747 0 -26 -24z"/>
<path d="M3644 2243 c-12 -2 -32 -16 -46 -31 -14 -15 -291 -487 -616 -1048
-632 -1091 -616 -1060 -572 -1117 34 -43 78 -51 245 -43 487 21 934 167 1328
433 143 96 238 174 375 307 122 119 147 161 124 212 -7 14 -175 305 -374 646
-322 553 -365 622 -394 634 -18 8 -37 13 -41 13 -4 -1 -18 -4 -29 -6z"/>
<path d="M344 1472 c-63 -50 -58 -95 21 -228 164 -273 398 -533 658 -729 248
-188 567 -343 872 -425 138 -38 166 -38 204 -2 24 21 663 1109 736 1251 23 45
13 92 -26 125 l-31 26 -1206 0 c-1129 0 -1208 -2 -1228 -18z"/>
</g>
</svg>
